<svg viewBox="0 0 512 512"><rect id="rect4048" x="0" y="0" width="512" height="512" style="fill:#fff000;"/><path id="path4052" d="M150.711,122.278c-14.6,0.371 -28.423,11.058 -31.375,25.532c-1.711,29.888 -0.406,59.974 -0.719,89.937c-0.791,12.857 -0.779,26.845 7.562,37.469c46.165,47.293 93.298,93.714 139.813,140.687c10.163,13.677 31.367,17.533 45.156,7.407c34.023,-32.547 66.768,-66.583 100.313,-99.688c14.019,-10.127 18.615,-31.619 8.187,-45.875c-40.806,-42.105 -82.989,-83.066 -124.406,-124.656c0,0 -19.78,-24.401 -34.781,-29c-12.809,-2.906 -26.272,-0.961 -39.344,-1.688c-21.958,-0.013 -43.917,0.175 -65.875,0.094c-1.516,-0.19 -3.021,-0.257 -4.531,-0.219l0,0Zm59.156,59.407c21.587,0.462 36.234,28.716 23.156,46.531c-10.965,18.417 -42.129,17.571 -51.594,-2.125c-10.83,-18.786 4.266,-45.295 26.313,-44.344c0.71,-0.048 1.429,-0.078 2.125,-0.062l0,0Z" style="fill:#fff;fill-rule:nonzero;"/><path id="path4054" d="M250.193,87.873c-36.772,0.742 -73.617,-0.541 -110.369,0.641c-31.013,3.601 -57.165,32.51 -55.898,64.107c-0.377,32.944 0.13,65.898 -0.202,98.845c-0.857,18.169 4.919,36.785 17.875,49.844l148.731,148.116c23.758,23.758 69.797,18.732 92.067,-7.631c34.76,-34.836 70.168,-69.169 104.066,-104.712c20.59,-26.258 24.002,-57.58 -8.516,-90.098l-136.41,-136.519c-12.526,-14.867 -32.02,-22.973 -51.344,-22.593Zm-29.063,34.531c13.072,0.727 26.536,-1.218 39.344,1.687c15.001,4.6 34.756,29.006 34.756,29.006c41.416,41.59 83.626,82.545 124.432,124.651c10.427,14.256 5.822,35.754 -8.198,45.881c-33.545,33.105 -66.279,67.134 -100.302,99.681c-13.789,10.126 -34.998,6.259 -45.161,-7.418c-46.515,-46.974 -93.643,-93.383 -139.808,-140.676c-8.342,-10.624 -8.375,-24.611 -7.583,-37.468c0.313,-29.964 -0.971,-60.05 0.739,-89.938c3.258,-15.971 19.735,-27.346 35.906,-25.319c21.958,0.081 43.917,-0.101 65.875,-0.087l0,0Zm-14.625,35.906c-28.697,-0.058 -53.512,26.5 -51.75,55.156c0.794,27.146 24.946,51.066 52.25,50.84c25.498,0.602 49.505,-19.276 53.188,-44.59c4.266,-25.564 -12.561,-53.127 -38.094,-59.437c-5.071,-1.483 -10.31,-2.094 -15.594,-1.969Zm1.313,33.906c14.748,-0.916 25.168,18.22 16.406,30.157c-7.117,11.954 -27.356,11.409 -33.5,-1.375c-7.029,-12.194 2.783,-29.399 17.094,-28.782Z" style="fill:#1a1a1a;"/></svg>