<svg viewBox="0 0 512 512"><rect id="rect4007" x="0" y="0" width="512" height="512" style="fill:#fff000;"/><path id="path4030" d="M131.594,98.216c-15.876,0.403 -30.908,12.025 -34.119,27.764c-1.859,32.502 -0.44,65.22 -0.781,97.804c-0.861,13.981 -0.848,29.192 8.224,40.746c50.202,51.428 101.457,101.909 152.04,152.991c11.052,14.874 34.111,19.066 49.106,8.054c36.998,-35.393 72.606,-72.405 109.085,-108.406c15.246,-11.012 20.243,-34.384 8.904,-49.887c-44.375,-45.788 -90.248,-90.331 -135.287,-135.558c0,0 -21.51,-26.535 -37.823,-31.537c-13.929,-3.16 -28.57,-1.044 -42.785,-1.835c-23.878,-0.014 -47.758,0.19 -71.636,0.102c-1.649,-0.206 -3.285,-0.279 -4.928,-0.238l0,0Zm64.33,64.602c23.475,0.503 39.403,31.228 25.182,50.601c-11.924,20.028 -45.814,19.108 -56.106,-2.311c-11.777,-20.429 4.638,-49.256 28.613,-48.222c0.773,-0.052 1.554,-0.085 2.311,-0.067l0,-0.001Z" style="fill:#fff;fill-rule:nonzero;"/><path id="path4009" d="M239.777,60.801c-39.987,0.808 -80.055,-0.588 -120.022,0.698c-33.725,3.916 -62.164,35.353 -60.786,69.714c-0.41,35.825 0.141,71.661 -0.22,107.49c-0.932,19.758 5.349,40.002 19.438,54.203l161.74,161.07c25.836,25.836 75.901,20.37 100.119,-8.299c37.799,-37.882 76.304,-75.218 113.167,-113.869c22.391,-28.555 26.101,-62.617 -9.261,-97.979l-148.341,-148.458c-13.62,-16.167 -34.82,-24.982 -55.834,-24.57Zm-31.604,37.552c14.215,0.791 28.856,-1.325 42.785,1.835c16.313,5.002 37.795,31.542 37.795,31.542c45.039,45.228 90.94,89.765 135.314,135.553c11.34,15.503 6.332,38.881 -8.914,49.894c-36.479,36 -72.076,73.005 -109.075,108.399c-14.995,11.012 -38.058,6.807 -49.11,-8.067c-50.583,-51.082 -101.833,-101.55 -152.036,-152.979c-9.071,-11.553 -9.107,-26.764 -8.246,-40.746c0.341,-32.583 -1.056,-65.301 0.804,-97.803c3.542,-17.368 21.461,-29.737 39.046,-27.534c23.879,0.088 47.758,-0.109 71.637,-0.094l0,0Zm-15.904,39.046c-31.208,-0.063 -58.192,28.818 -56.276,59.98c0.862,29.521 27.127,55.532 56.819,55.286c27.728,0.655 53.835,-20.962 57.84,-48.489c4.639,-27.8 -13.66,-57.774 -41.426,-64.636c-5.515,-1.612 -11.212,-2.276 -16.957,-2.141Zm1.427,36.872c16.039,-0.997 27.37,19.814 17.841,32.794c-7.74,13 -29.749,12.407 -36.43,-1.496c-7.644,-13.26 3.027,-31.969 18.589,-31.298Z" style="fill:#1a1a1a;"/></svg>